<svg width="152" height="11" viewBox="0 0 152 11" fill="none" xmlns="http://www.w3.org/2000/svg">
<path d="M25.381 5.96875C25.381 3.20733 27.6195 0.96875 30.381 0.96875H96.3333C99.0948 0.96875 101.333 3.20733 101.333 5.96875C101.333 8.73017 99.0948 10.9688 96.3333 10.9688H30.381C27.6195 10.9688 25.381 8.73017 25.381 5.96875Z" fill="#00CCCC"/>
<path d="M151.048 5.96875C151.048 3.20733 148.809 0.96875 146.048 0.96875H142.238C139.477 0.96875 137.238 3.20733 137.238 5.96875C137.238 8.73017 139.477 10.9688 142.238 10.9688H146.048C148.809 10.9688 151.048 8.73017 151.048 5.96875Z" fill="#E3E6E8"/>
<path d="M112.381 5.96875C112.381 3.20733 114.62 0.96875 117.381 0.96875H121.19C123.952 0.96875 126.19 3.20733 126.19 5.96875C126.19 8.73017 123.952 10.9688 121.19 10.9688H117.381C114.62 10.9688 112.381 8.73017 112.381 5.96875Z" fill="#E3E6E8"/>
<path d="M0.523809 5.96875C0.523809 3.20733 2.76239 0.96875 5.52381 0.96875H9.33333C12.0948 0.96875 14.3333 3.20733 14.3333 5.96875C14.3333 8.73017 12.0948 10.9688 9.33333 10.9688H5.52381C2.76239 10.9688 0.523809 8.73017 0.523809 5.96875Z" fill="#E3E6E8"/>
</svg>